<svg width="420" height="860" viewBox="0 0 420 860" fill="none" xmlns="http://www.w3.org/2000/svg">
  <rect width="420" height="860" rx="48" fill="#0F172A"/>
  <rect x="18" y="18" width="384" height="824" rx="38" fill="#F8FAFC"/>
  <rect x="138" y="34" width="144" height="20" rx="10" fill="#0F172A"/>

  <rect x="38" y="82" width="344" height="62" rx="16" fill="#FFFFFF"/>
  <text x="56" y="110" fill="#0F172A" font-family="Inter, Arial, sans-serif" font-size="20" font-weight="800">Bookings</text>
  <text x="56" y="130" fill="#64748B" font-family="Inter, Arial, sans-serif" font-size="12">SmartBooker</text>

  <rect x="38" y="156" width="344" height="52" rx="14" fill="#FFFFFF"/>
  <rect x="48" y="166" width="72" height="32" rx="10" fill="#0052FF"/>
  <text x="67" y="186" fill="#FFFFFF" font-family="Inter, Arial, sans-serif" font-size="11" font-weight="700">Today</text>
  <text x="140" y="186" fill="#64748B" font-family="Inter, Arial, sans-serif" font-size="11" font-weight="600">Upcoming</text>
  <text x="224" y="186" fill="#64748B" font-family="Inter, Arial, sans-serif" font-size="11" font-weight="600">Done</text>
  <text x="290" y="186" fill="#64748B" font-family="Inter, Arial, sans-serif" font-size="11" font-weight="600">Cancelled</text>

  <rect x="38" y="224" width="344" height="122" rx="16" fill="#FFFFFF"/>
  <rect x="52" y="240" width="44" height="44" rx="10" fill="#E6F0FF"/>
  <text x="62" y="266" fill="#0052FF" font-family="Inter, Arial, sans-serif" font-size="14" font-weight="800">18</text>
  <text x="110" y="254" fill="#0F172A" font-family="Inter, Arial, sans-serif" font-size="15" font-weight="700">Aditi &amp; Rohan</text>
  <text x="110" y="276" fill="#64748B" font-family="Inter, Arial, sans-serif" font-size="12">Wedding " 18 May</text>
  <rect x="294" y="246" width="74" height="24" rx="12" fill="#D1FAE5"/>
  <text x="312" y="262" fill="#059669" font-family="Inter, Arial, sans-serif" font-size="10" font-weight="700">CONFIRMED</text>
  <text x="110" y="304" fill="#0052FF" font-family="Inter, Arial, sans-serif" font-size="12" font-weight="700">Balance ą58,000</text>

  <rect x="38" y="360" width="344" height="122" rx="16" fill="#FFFFFF"/>
  <rect x="52" y="376" width="44" height="44" rx="10" fill="#E6F0FF"/>
  <text x="62" y="402" fill="#0052FF" font-family="Inter, Arial, sans-serif" font-size="14" font-weight="800">21</text>
  <text x="110" y="390" fill="#0F172A" font-family="Inter, Arial, sans-serif" font-size="15" font-weight="700">Karan Mehta</text>
  <text x="110" y="412" fill="#64748B" font-family="Inter, Arial, sans-serif" font-size="12">Reception " 21 May</text>
  <rect x="304" y="382" width="64" height="24" rx="12" fill="#FEF3C7"/>
  <text x="321" y="398" fill="#B45309" font-family="Inter, Arial, sans-serif" font-size="10" font-weight="700">PENDING</text>
  <text x="110" y="440" fill="#0052FF" font-family="Inter, Arial, sans-serif" font-size="12" font-weight="700">Balance ą32,000</text>

  <rect x="38" y="708" width="344" height="96" rx="20" fill="#FFFFFF"/>
  <circle cx="84" cy="756" r="10" fill="#94A3B8"/>
  <circle cx="158" cy="756" r="10" fill="#0052FF"/>
  <circle cx="232" cy="756" r="10" fill="#94A3B8"/>
  <circle cx="306" cy="756" r="10" fill="#94A3B8"/>
  <text x="68" y="778" fill="#64748B" font-family="Inter, Arial, sans-serif" font-size="10" font-weight="600">Home</text>
  <text x="136" y="778" fill="#0052FF" font-family="Inter, Arial, sans-serif" font-size="10" font-weight="700">Bookings</text>
  <text x="214" y="778" fill="#64748B" font-family="Inter, Arial, sans-serif" font-size="10" font-weight="600">Payments</text>
  <text x="293" y="778" fill="#64748B" font-family="Inter, Arial, sans-serif" font-size="10" font-weight="600">Reports</text>
</svg>
