<svg width="420" height="860" viewBox="0 0 420 860" fill="none" xmlns="http://www.w3.org/2000/svg">
  <rect width="420" height="860" rx="48" fill="#0F172A"/>
  <rect x="18" y="18" width="384" height="824" rx="38" fill="#F8FAFC"/>
  <rect x="138" y="34" width="144" height="20" rx="10" fill="#0F172A"/>
  <rect x="38" y="82" width="344" height="66" rx="18" fill="url(#g1)"/>
  <text x="58" y="112" fill="#fff" font-family="Inter, Arial, sans-serif" font-size="16" font-weight="700">SmartBooker</text>
  <text x="58" y="132" fill="#DBEAFE" font-family="Inter, Arial, sans-serif" font-size="12">Today snapshot</text>

  <rect x="38" y="164" width="164" height="108" rx="16" fill="#FFFFFF"/>
  <rect x="218" y="164" width="164" height="108" rx="16" fill="#FFFFFF"/>
  <text x="56" y="194" fill="#64748B" font-family="Inter, Arial, sans-serif" font-size="12">Today's Bookings</text>
  <text x="56" y="232" fill="#0F172A" font-family="Inter, Arial, sans-serif" font-size="28" font-weight="800">28</text>
  <text x="236" y="194" fill="#64748B" font-family="Inter, Arial, sans-serif" font-size="12">Net Collected</text>
  <text x="236" y="232" fill="#0F172A" font-family="Inter, Arial, sans-serif" font-size="28" font-weight="800">¹4.2L</text>

  <rect x="38" y="290" width="344" height="92" rx="16" fill="#FFFFFF"/>
  <text x="56" y="320" fill="#64748B" font-family="Inter, Arial, sans-serif" font-size="12">Pending Collection</text>
  <text x="56" y="354" fill="#0052FF" font-family="Inter, Arial, sans-serif" font-size="24" font-weight="800">¹1.35L</text>
  <rect x="302" y="316" width="62" height="28" rx="14" fill="#DBEAFE"/>
  <text x="317" y="334" fill="#0052FF" font-family="Inter, Arial, sans-serif" font-size="11" font-weight="700">DUE</text>

  <rect x="38" y="400" width="344" height="128" rx="16" fill="#FFFFFF"/>
  <text x="56" y="432" fill="#0F172A" font-family="Inter, Arial, sans-serif" font-size="14" font-weight="700">Quick Actions</text>
  <rect x="56" y="448" width="90" height="56" rx="12" fill="#E6F0FF"/>
  <rect x="164" y="448" width="90" height="56" rx="12" fill="#D1FAE5"/>
  <rect x="272" y="448" width="90" height="56" rx="12" fill="#FEE2E2"/>

  <rect x="38" y="708" width="344" height="96" rx="20" fill="#FFFFFF"/>
  <circle cx="84" cy="756" r="10" fill="#0052FF"/>
  <circle cx="158" cy="756" r="10" fill="#94A3B8"/>
  <circle cx="232" cy="756" r="10" fill="#94A3B8"/>
  <circle cx="306" cy="756" r="10" fill="#94A3B8"/>
  <text x="68" y="778" fill="#0052FF" font-family="Inter, Arial, sans-serif" font-size="10" font-weight="700">Home</text>
  <text x="136" y="778" fill="#64748B" font-family="Inter, Arial, sans-serif" font-size="10" font-weight="600">Bookings</text>
  <text x="214" y="778" fill="#64748B" font-family="Inter, Arial, sans-serif" font-size="10" font-weight="600">Payments</text>
  <text x="293" y="778" fill="#64748B" font-family="Inter, Arial, sans-serif" font-size="10" font-weight="600">Reports</text>

  <defs>
    <linearGradient id="g1" x1="38" y1="82" x2="382" y2="148" gradientUnits="userSpaceOnUse">
      <stop stop-color="#0039B3"/>
      <stop offset="0.55" stop-color="#0052FF"/>
      <stop offset="1" stop-color="#4D8CFF"/>
    </linearGradient>
  </defs>
</svg>
